<svg xmlns="http://www.w3.org/2000/svg" viewBox="0 0 900 560">
<defs><linearGradient id="bg" x1="0" y1="0" x2="1" y2="1"><stop stop-color="#f5fbff"/><stop offset="1" stop-color="#edf4ff"/></linearGradient><linearGradient id="bar" x1="0" y1="0" x2="0" y2="1"><stop stop-color="#64b5ff"/><stop offset="1" stop-color="#1167ff"/></linearGradient><filter id="s"><feDropShadow dx="0" dy="18" stdDeviation="20" flood-color="#0f172a" flood-opacity=".12"/></filter></defs><rect width="900" height="560" rx="36" fill="url(#bg)"/><g font-family="Inter,Arial" filter="url(#s)"><rect x="58" y="60" width="784" height="440" rx="30" fill="#fff"/><text x="96" y="110" fill="#0f172a" font-size="28" font-weight="900">Monthly Analytics</text><text x="650" y="110" fill="#60708a" font-size="17" font-weight="700">PAX / Capacity / SLF</text><g transform="translate(96 152)"><rect x="0" y="0" width="84" height="220" rx="18" fill="#dbeafe"/><rect x="0" y="78" width="84" height="142" rx="18" fill="url(#bar)"/><rect x="112" y="0" width="84" height="220" rx="18" fill="#dbeafe"/><rect x="112" y="56" width="84" height="164" rx="18" fill="url(#bar)"/><rect x="224" y="0" width="84" height="220" rx="18" fill="#dbeafe"/><rect x="224" y="31" width="84" height="189" rx="18" fill="url(#bar)"/><rect x="336" y="0" width="84" height="220" rx="18" fill="#dbeafe"/><rect x="336" y="86" width="84" height="134" rx="18" fill="url(#bar)"/><path d="M40 76 C120 42 190 68 270 36 S390 50 430 28" fill="none" stroke="#14c8a0" stroke-width="7" stroke-linecap="round"/><circle cx="40" cy="76" r="7" fill="#14c8a0"/><circle cx="270" cy="36" r="7" fill="#14c8a0"/><circle cx="430" cy="28" r="7" fill="#14c8a0"/></g><g transform="translate(590 158)"><rect width="210" height="54" rx="16" fill="#f1f7ff"/><text x="18" y="24" fill="#64748b" font-size="12" font-weight="900">TOP ROUTE</text><text x="18" y="45" fill="#0f172a" font-size="20" font-weight="900">OTP</text><rect y="74" width="210" height="54" rx="16" fill="#f1f7ff"/><text x="18" y="98" fill="#64748b" font-size="12" font-weight="900">TOP AIRLINE</text><text x="18" y="119" fill="#0f172a" font-size="20" font-weight="900">Wizz Air</text><rect y="148" width="210" height="54" rx="16" fill="#f1f7ff"/><text x="18" y="172" fill="#64748b" font-size="12" font-weight="900">DATA QUALITY</text><text x="18" y="193" fill="#0f172a" font-size="20" font-weight="900">96%</text></g></g></svg>