<svg xmlns="http://www.w3.org/2000/svg" viewBox="0 0 900 560">
<defs><linearGradient id="bg" x1="0" y1="0" x2="1" y2="1"><stop stop-color="#eef6ff"/><stop offset="1" stop-color="#ffffff"/></linearGradient><linearGradient id="g" x1="0" y1="0" x2="1" y2="1"><stop stop-color="#1167ff"/><stop offset="1" stop-color="#14c8a0"/></linearGradient><filter id="s"><feDropShadow dx="0" dy="20" stdDeviation="22" flood-color="#0f172a" flood-opacity=".13"/></filter></defs><rect width="900" height="560" rx="36" fill="url(#bg)"/><g filter="url(#s)"><rect x="80" y="78" width="740" height="404" rx="34" fill="#fff"/></g><g font-family="Inter,Arial"><text x="120" y="132" fill="#0f172a" font-size="30" font-weight="900">Managed AOIP Cloud</text><text x="120" y="165" fill="#60708a" font-size="18">Separate airport environments with controlled access.</text><circle cx="450" cy="280" r="94" fill="url(#g)" opacity=".16"/><path d="M374 305h141a42 42 0 0 0 0-84c-14-45-77-49-99-10-27 2-46 22-46 48-26 2-42 18-42 39 0 4 1 7 2 10" fill="none" stroke="url(#g)" stroke-width="14" stroke-linecap="round" stroke-linejoin="round"/><g transform="translate(120 230)"><rect width="180" height="70" rx="20" fill="#f1f7ff"/><text x="22" y="30" fill="#60708a" font-size="13" font-weight="900">DEMO</text><text x="22" y="53" fill="#0f172a" font-size="22" font-weight="900">demo.aoip.app</text><rect y="96" width="180" height="70" rx="20" fill="#f1f7ff"/><text x="22" y="126" fill="#60708a" font-size="13" font-weight="900">PILOT</text><text x="22" y="149" fill="#0f172a" font-size="22" font-weight="900">omr.aoip.app</text></g><g transform="translate(604 232)"><rect width="176" height="70" rx="20" fill="#f1f7ff"/><text x="22" y="30" fill="#60708a" font-size="13" font-weight="900">DATABASE</text><text x="22" y="53" fill="#0f172a" font-size="22" font-weight="900">separated</text><rect y="96" width="176" height="70" rx="20" fill="#f1f7ff"/><text x="22" y="126" fill="#60708a" font-size="13" font-weight="900">BACKUP</text><text x="22" y="149" fill="#0f172a" font-size="22" font-weight="900">daily</text></g><path d="M300 267h58M542 267h62M300 363h74M526 363h78" stroke="#b9cff0" stroke-width="5" stroke-linecap="round" stroke-dasharray="8 11"/></g></svg>