<svg xmlns="http://www.w3.org/2000/svg" viewBox="0 0 96 96" role="img" aria-label="AOIP icon">
  <defs>
    <linearGradient id="bg" x1="0" y1="0" x2="1" y2="1">
      <stop offset="0" stop-color="#07162f"/>
      <stop offset="0.55" stop-color="#0b2a5f"/>
      <stop offset="1" stop-color="#0e4ea5"/>
    </linearGradient>
    <linearGradient id="bar" x1="0" y1="0" x2="1" y2="0">
      <stop offset="0" stop-color="#14c8a0"/>
      <stop offset="1" stop-color="#00a7ff"/>
    </linearGradient>
  </defs>
  <rect width="96" height="96" rx="24" fill="url(#bg)"/>
  <path d="M48 16c2.2 0 4 1.8 4 4v20l24 14c1.8 1 2.7 3.1 2.1 5.1-.8 2.5-3.5 3.8-5.8 2.7L52 52.5V66l8 6.5c1.3 1.1 1.7 2.9.9 4.4-.8 1.6-2.7 2.3-4.3 1.6L48 74l-8.6 4.5c-1.6.8-3.5 0-4.3-1.6-.8-1.5-.4-3.4.9-4.4l8-6.5V52.5l-20.3 9.3c-2.4 1.1-5.1-.2-5.8-2.7-.6-2 .3-4.1 2.1-5.1l24-14V20c0-2.2 1.8-4 4-4Z" fill="#fff"/>
  <rect x="25" y="82" width="14" height="4" rx="2" fill="url(#bar)"/>
  <rect x="43" y="82" width="10" height="4" rx="2" fill="url(#bar)" opacity=".85"/>
  <rect x="57" y="82" width="14" height="4" rx="2" fill="url(#bar)" opacity=".7"/>
</svg>