<svg xmlns="http://www.w3.org/2000/svg" viewBox="0 0 900 560">
<defs><linearGradient id="bg" x1="0" y1="0" x2="1" y2="1"><stop stop-color="#eef6ff"/><stop offset="1" stop-color="#ffffff"/></linearGradient><linearGradient id="b" x1="0" y1="0" x2="1" y2="1"><stop stop-color="#1167ff"/><stop offset="1" stop-color="#00a7ff"/></linearGradient><filter id="s" x="-20%" y="-20%" width="140%" height="140%"><feDropShadow dx="0" dy="22" stdDeviation="22" flood-color="#0f172a" flood-opacity=".16"/></filter></defs>
<rect width="900" height="560" rx="36" fill="url(#bg)"/><rect x="60" y="62" width="780" height="436" rx="32" fill="#0d2f69" filter="url(#s)"/><circle cx="96" cy="94" r="8" fill="#8fb1de"/><circle cx="122" cy="94" r="8" fill="#8fb1de"/><circle cx="148" cy="94" r="8" fill="#8fb1de"/><text x="190" y="104" fill="#eaf2ff" font-family="Inter,Arial" font-size="27" font-weight="800">AOIP Daily Operations</text>
<g font-family="Inter,Arial"><rect x="92" y="144" width="168" height="116" rx="22" fill="#fff" opacity=".96"/><text x="116" y="180" fill="#64748b" font-size="18" font-weight="700">Today Planned</text><text x="116" y="226" fill="#0f172a" font-size="50" font-weight="900">18</text><rect x="282" y="144" width="168" height="116" rx="22" fill="#fff" opacity=".96"/><text x="306" y="180" fill="#64748b" font-size="18" font-weight="700">In Progress</text><text x="306" y="226" fill="#0f172a" font-size="50" font-weight="900">4</text><rect x="472" y="144" width="168" height="116" rx="22" fill="#fff" opacity=".96"/><text x="496" y="180" fill="#64748b" font-size="18" font-weight="700">Delayed &gt;15</text><text x="496" y="226" fill="#0f172a" font-size="50" font-weight="900">2</text><rect x="662" y="144" width="146" height="116" rx="22" fill="#fff" opacity=".96"/><text x="686" y="180" fill="#64748b" font-size="18" font-weight="700">Quality</text><text x="686" y="226" fill="#0f172a" font-size="48" font-weight="900">96%</text>
<rect x="92" y="292" width="716" height="168" rx="24" fill="#fff" opacity=".96"/><text x="120" y="331" fill="#0f172a" font-size="24" font-weight="900">Live operational timeline</text><line x1="120" y1="350" x2="780" y2="350" stroke="#dbe7f7"/><text x="122" y="386" fill="#0b3f9a" font-size="22" font-weight="900">08:45</text><text x="220" y="386" fill="#0f172a" font-size="20">OTP arrival completed</text><rect x="694" y="366" width="74" height="31" rx="16" fill="#eafaf5"/><text x="708" y="387" fill="#047857" font-size="15" font-weight="900">On time</text><text x="122" y="430" fill="#0b3f9a" font-size="22" font-weight="900">10:20</text><text x="220" y="430" fill="#0f172a" font-size="20">MUC departure delay category missing</text><rect x="704" y="410" width="64" height="31" rx="16" fill="#fff7ed"/><text x="715" y="431" fill="#c2410c" font-size="15" font-weight="900">Action</text></g></svg>